<?xml version="1.0" standalone="no"?><!DOCTYPE svg PUBLIC "-//W3C//DTD SVG 1.1//EN" "http://www.w3.org/Graphics/SVG/1.1/DTD/svg11.dtd"><svg t="1589840869285" class="icon" viewBox="0 0 1024 1024" version="1.1" xmlns="http://www.w3.org/2000/svg" p-id="2965" xmlns:xlink="http://www.w3.org/1999/xlink" width="200" height="200"><defs><style type="text/css"></style></defs><path d="M805.5 590v192c0 11-9 20-20 20h-560c-11 0-20-9-20-20V242c0-11 9-20 20-20h287.9v-50H225.5c-38.7 0-70 31.3-70 70v540c0 38.7 31.3 70 70 70h560c38.7 0 70-31.3 70-70V590h-50zM843.5 351.7c-6.4 0-12.8-2.4-17.7-7.3L697 215.5c-9.8-9.8-9.8-25.6 0-35.4 9.8-9.8 25.6-9.8 35.4 0L861.2 309c9.8 9.8 9.8 25.6 0 35.4-4.9 4.8-11.3 7.3-17.7 7.3z" fill="#13227a" p-id="2966"></path><path d="M714.6 480.2c-6.4 0-12.8-2.4-17.7-7.3-9.8-9.8-9.8-25.6 0-35.4l128.9-128.9c9.8-9.8 25.6-9.8 35.4 0 9.8 9.8 9.8 25.6 0 35.4L732.3 472.9c-4.9 4.9-11.3 7.3-17.7 7.3z" fill="#13227a" p-id="2967"></path><path d="M382.5 675h-0.9c-13.8-0.5-24.6-12-24.1-25.8 0.1-1.7 1.6-42.9 18.3-96.6C398.1 481 437 420.5 488.5 377.3c86-72 205.6-97.7 355.5-76.1 13.7 2 23.2 14.6 21.2 28.3-2 13.7-14.6 23.1-28.3 21.2-135.2-19.4-241.7 2.4-316.3 64.9-107.1 89.7-113.1 233.7-113.1 235.2-0.5 13.6-11.6 24.2-25 24.2z" fill="#13227a" p-id="2968"></path><path d="M513.5 197m-25 0a25 25 0 1 0 50 0 25 25 0 1 0-50 0Z" fill="#13227a" p-id="2969"></path><path d="M830.5 590m-25 0a25 25 0 1 0 50 0 25 25 0 1 0-50 0Z" fill="#13227a" p-id="2970"></path></svg>